<svg aria-hidden="true" style="width:0;height:0;position:absolute;overflow:hidden" xmlns="http://www.w3.org/2000/svg"><defs><symbol id="icon-tiktok" viewBox="0 0 32 32"><path d="M28.145.06H3.856A3.799 3.799 0 0 0 .061 3.855v24.289a3.799 3.799 0 0 0 3.795 3.795h24.289a3.799 3.799 0 0 0 3.795-3.795V3.855A3.799 3.799 0 0 0 28.145.06zm-3.032 13.908a5.236 5.236 0 0 1-.522.026h-.002a5.68 5.68 0 0 1-4.744-2.551l-.013-.021v8.757a6.472 6.472 0 1 1-6.472-6.472c.135 0 .267.012.4.02v3.19c-.133-.016-.263-.04-.4-.04a3.303 3.303 0 1 0 0 6.606c1.825 0 3.436-1.438 3.436-3.262l.032-14.873h3.048a5.69 5.69 0 0 0 5.219 5.073l.019.001v3.545z"/></symbol><symbol id="icon-telegram" viewBox="0 0 32 32"><path d="M32 0 0 18l10.227 3.787L26 7 14.003 23.187l.009.003-.012-.003V32l5.735-6.691L27.002 28l4.999-28z"/></symbol><symbol id="icon-instagram" viewBox="0 0 32 32"><path d="M31.968 9.408c-.074-1.701-.349-2.869-.742-3.882a7.839 7.839 0 0 0-1.85-2.837l-.001-.001A7.906 7.906 0 0 0 26.597.861l-.054-.018C25.524.449 24.362.176 22.661.101 20.949.019 20.405 0 16.059 0c-4.344 0-4.888.019-6.595.094-1.699.074-2.869.349-3.88.742a7.847 7.847 0 0 0-2.839 1.85l-.001.001A7.9 7.9 0 0 0 .919 5.465l-.018.054C.506 6.538.232 7.7.157 9.401c-.082 1.712-.101 2.256-.101 6.602 0 4.344.019 4.888.094 6.595.075 1.701.35 2.869.744 3.882a7.915 7.915 0 0 0 1.849 2.837l.001.001c.8.813 1.77 1.443 2.832 1.843 1.019.395 2.182.67 3.882.744 1.707.075 2.251.094 6.595.094 4.346 0 4.89-.019 6.595-.094 1.701-.074 2.869-.349 3.882-.742a8.237 8.237 0 0 0 4.664-4.628l.019-.055c.394-1.019.669-2.182.744-3.882.075-1.707.093-2.251.093-6.595s-.006-4.888-.08-6.595zm-2.88 13.066c-.07 1.563-.333 2.406-.55 2.97a5.341 5.341 0 0 1-3.004 3.024l-.036.012c-.56.219-1.411.482-2.968.55-1.688.075-2.194.094-6.464.094-4.269 0-4.782-.019-6.464-.094-1.563-.069-2.406-.331-2.97-.55a4.953 4.953 0 0 1-1.836-1.192l-.001-.001a4.978 4.978 0 0 1-1.184-1.803L3.6 25.45c-.218-.563-.48-1.413-.549-2.97-.075-1.688-.094-2.195-.094-6.464 0-4.27.019-4.784.094-6.464.069-1.563.331-2.406.549-2.97a4.897 4.897 0 0 1 1.198-1.837l.002-.002a4.972 4.972 0 0 1 1.806-1.182l.034-.011c.56-.219 1.411-.48 2.968-.55 1.688-.074 2.195-.093 6.464-.093 4.275 0 4.782.019 6.464.093 1.563.069 2.406.331 2.97.55a4.91 4.91 0 0 1 1.837 1.194c.531.52.938 1.144 1.195 1.84.218.56.48 1.411.549 2.968.075 1.688.094 2.194.094 6.464 0 4.269-.019 4.768-.094 6.458z"/><path d="M16.059 7.782a8.223 8.223 0 0 0-8.219 8.221 8.223 8.223 0 0 0 16.442.008v-.009a8.223 8.223 0 0 0-8.221-8.221zm0 13.552a5.333 5.333 0 0 1 .001-10.666h.001a5.334 5.334 0 1 1 0 10.668zM26.525 7.458a1.92 1.92 0 0 1-3.84 0 1.92 1.92 0 0 1 3.84 0z"/></symbol><symbol id="icon-discord" viewBox="0 0 32 32"><path d="M27.107 5.637c-1.908-.917-4.123-1.638-6.444-2.051l-.158-.023a19.443 19.443 0 0 0-.846 1.756c-2.462-.37-4.9-.37-7.317 0a18.745 18.745 0 0 0-.856-1.756A25.935 25.935 0 0 0 4.723 5.71l.157-.067C.702 11.957-.431 18.113.136 24.183c2.771 2.069 5.457 3.326 8.097 4.149a19.779 19.779 0 0 0 1.681-2.741l.053-.115a16.916 16.916 0 0 1-2.806-1.372l.075.043c.259-.192.477-.366.689-.546l-.02.016c5.265 2.463 10.986 2.463 16.189 0 .188.158.406.332.628.5l.041.03c-.777.478-1.678.926-2.62 1.292l-.116.04a20.063 20.063 0 0 0 1.734 2.856c2.643-.823 5.331-2.08 8.102-4.152.665-7.036-1.135-13.136-4.757-18.545zM10.684 20.449c-1.581 0-2.877-1.476-2.877-3.273s1.269-3.275 2.877-3.275c1.608 0 2.905 1.476 2.877 3.275.002 1.797-1.268 3.273-2.877 3.273zm10.632 0c-1.581 0-2.877-1.476-2.877-3.273s1.268-3.275 2.877-3.275c1.608 0 2.904 1.476 2.877 3.275 0 1.797-1.268 3.273-2.877 3.273z"/></symbol><symbol id="icon-person-black-18dp-1men-1" viewBox="0 0 32 32"><path d="M16 16a5.333 5.333 0 1 0 0-10.666A5.333 5.333 0 1 0 16 16zm0 2.667c-3.561 0-10.667 1.787-10.667 5.333v1.333c0 .732.599 1.333 1.333 1.333h18.667c.732 0 1.333-.601 1.333-1.333V24c0-3.547-7.108-5.333-10.667-5.333z"/></symbol><symbol id="phone" viewBox="0 0 32 32"><path d="m24.882 19.774-3.268-.373a2.552 2.552 0 0 0-2.11.732l-2.368 2.368c-3.669-1.894-6.585-4.81-8.427-8.372l-.051-.108 2.382-2.377a2.552 2.552 0 0 0 .731-2.122l.001.012-.373-3.243a2.578 2.578 0 0 0-2.557-2.276H6.613c-1.454 0-2.663 1.209-2.574 2.661.683 10.987 9.47 19.762 20.444 20.444 1.452.089 2.663-1.12 2.663-2.574v-2.238a2.549 2.549 0 0 0-2.253-2.532l-.012-.001z"/></symbol><symbol id="email" viewBox="0 0 32 32"><path d="M26.667 5.333H5.334A2.662 2.662 0 0 0 2.682 8l-.014 16c0 1.467 1.2 2.667 2.667 2.667h21.333c1.467 0 2.667-1.2 2.667-2.667V8c0-1.467-1.2-2.667-2.667-2.667zm-.534 5.668-9.426 5.892a1.343 1.343 0 0 1-1.421-.004l.006.003L5.866 11A1.133 1.133 0 1 1 7.07 9.083l-.004-.003 8.933 5.586 8.933-5.588a1.132 1.132 0 1 1 1.204 1.916l-.005.003z"/></symbol></defs></svg>